<?xml version="1.0" standalone="no"?>
<!DOCTYPE svg PUBLIC "-//W3C//DTD SVG 20010904//EN"
 "http://www.w3.org/TR/2001/REC-SVG-20010904/DTD/svg10.dtd">
<svg version="1.0" xmlns="http://www.w3.org/2000/svg"
 width="286.000000pt" height="320.000000pt" viewBox="0 0 286.000000 320.000000"
 preserveAspectRatio="xMidYMid meet">

<g transform="translate(0.000000,320.000000) scale(0.100000,-0.100000)"
fill="#000000" stroke="none">
<path d="M1550 3126 c-108 -23 -184 -76 -226 -158 -39 -76 -34 -166 16 -309
45 -129 50 -193 21 -261 -62 -145 -272 -226 -407 -157 -55 28 -107 95 -125
162 -6 23 -19 88 -28 145 l-16 103 -55 -47 c-67 -56 -112 -120 -136 -194 -25
-73 -26 -251 -2 -328 41 -128 29 -249 -29 -304 -38 -36 -125 -60 -183 -52
-113 17 -166 69 -219 214 l-38 102 -23 -83 c-12 -46 -31 -115 -42 -154 -43
-149 0 -266 153 -425 59 -61 101 -114 116 -147 44 -96 78 -325 91 -612 l7
-154 105 -74 c323 -227 574 -338 756 -335 181 2 344 64 648 244 94 56 192 116
218 135 l48 35 0 126 c0 229 36 445 94 562 36 74 77 109 214 183 224 122 301
234 290 422 -7 97 -47 202 -111 286 -42 57 -187 217 -187 208 0 -3 16 -52 35
-109 40 -120 45 -192 16 -256 -28 -62 -82 -116 -148 -149 -49 -25 -70 -30
-133 -30 -116 0 -199 44 -242 129 -23 45 -22 64 17 226 22 89 28 141 29 230 1
108 -1 118 -26 161 -34 57 -79 99 -190 173 -98 64 -196 165 -229 233 -27 57
-22 115 20 207 l30 66 -37 -1 c-20 0 -62 -6 -92 -13z m-30 -1283 c82 -41 186
-135 240 -216 73 -112 79 -144 86 -515 l7 -328 -87 -74 -87 -75 5 -45 c3 -25
8 -85 12 -135 l6 -90 -117 -48 c-64 -27 -118 -47 -120 -45 -2 2 -12 37 -23 78
-18 68 -20 71 -21 35 -1 -22 -4 -63 -7 -92 l-7 -52 -50 -11 c-37 -8 -66 -8
-103 0 l-53 11 -5 52 c-4 29 -7 70 -9 92 -2 37 -3 35 -21 -35 -10 -41 -20 -76
-21 -78 -2 -2 -56 19 -120 45 l-117 48 6 105 c4 58 9 119 11 135 4 27 -4 37
-82 105 l-86 75 6 320 c7 357 10 373 79 508 45 86 122 171 193 212 81 48 118
55 275 52 141 -2 147 -3 210 -34z"/>
<path d="M1020 1439 c0 -13 -18 -143 -40 -289 -21 -145 -38 -265 -37 -265 15
-9 258 -135 261 -135 5 0 -169 698 -176 706 -5 4 -8 -4 -8 -17z"/>
<path d="M1489 1107 c-47 -194 -85 -353 -84 -355 2 -3 201 99 241 124 l21 12
-41 280 c-23 154 -43 283 -46 285 -3 3 -44 -153 -91 -346z"/>
</g>
</svg>
